<svg width="20" height="20" viewBox="0 0 20 20" fill="none" xmlns="http://www.w3.org/2000/svg">
<path d="M12.5 4.58333V15.4167C12.5 15.8039 12.5 15.9975 12.532 16.1585C12.6635 16.8196 13.18 17.3367 13.8411 17.4683C14.0021 17.5003 14.1957 17.5003 14.583 17.5003C14.9702 17.5003 15.1645 17.5003 15.3255 17.4683C15.9867 17.3367 16.5034 16.8196 16.6349 16.1585C16.6667 15.9989 16.6667 15.8073 16.6667 15.4269V4.57314C16.6667 4.19271 16.6667 4.00072 16.6349 3.84115C16.5034 3.17999 15.9863 2.66354 15.3251 2.53202C15.1641 2.5 14.9705 2.5 14.5833 2.5C14.1961 2.5 14.0021 2.5 13.8411 2.53202C13.18 2.66354 12.6635 3.17999 12.532 3.84115C12.5 4.00214 12.5 4.19612 12.5 4.58333Z" stroke="black" stroke-width="1.66667" stroke-linecap="round" stroke-linejoin="round"/>
<path d="M3.33333 4.58333V15.4167C3.33333 15.8039 3.33333 15.9975 3.36535 16.1585C3.49686 16.8196 4.01332 17.3367 4.67447 17.4683C4.83547 17.5003 5.02908 17.5003 5.41629 17.5003C5.8035 17.5003 5.99785 17.5003 6.15885 17.4683C6.82 17.3367 7.33675 16.8196 7.46826 16.1585C7.5 15.9989 7.5 15.8073 7.5 15.4269V4.57314C7.5 4.19271 7.5 4.00072 7.46826 3.84115C7.33675 3.17999 6.81963 2.66354 6.15848 2.53202C5.99748 2.5 5.80387 2.5 5.41666 2.5C5.02945 2.5 4.83547 2.5 4.67447 2.53202C4.01332 2.66354 3.49686 3.17999 3.36535 3.84115C3.33333 4.00214 3.33333 4.19612 3.33333 4.58333Z" stroke="black" stroke-width="1.66667" stroke-linecap="round" stroke-linejoin="round"/>
</svg>
