<svg width="20" height="20" viewBox="0 0 20 20" fill="none" xmlns="http://www.w3.org/2000/svg">
<path d="M4.16666 14.4447V5.55582C4.16666 4.82285 4.16666 4.45596 4.32091 4.23909C4.45553 4.04981 4.66303 3.92554 4.89339 3.89582C5.15723 3.86179 5.48084 4.03438 6.12711 4.37906L14.4604 8.82351L14.4635 8.82485C15.1777 9.20576 15.535 9.39631 15.6522 9.65027C15.7544 9.87182 15.7544 10.1276 15.6522 10.3491C15.5348 10.6034 15.1767 10.7948 14.4604 11.1768L6.12711 15.6212C5.48037 15.9661 5.15733 16.138 4.89339 16.104C4.66303 16.0743 4.45553 15.95 4.32091 15.7608C4.16666 15.5439 4.16666 15.1777 4.16666 14.4447Z" stroke="black" stroke-width="1.66667" stroke-linecap="round" stroke-linejoin="round"/>
</svg>
