<svg width="20" height="20" viewBox="0 0 20 20" fill="none" xmlns="http://www.w3.org/2000/svg">
<path d="M5.83334 4.16667V15.8333M15 8.80941V11.1905C15 12.7131 14.9998 13.4744 14.6802 13.9131C14.4014 14.2957 13.9733 14.5414 13.5023 14.5894C12.9623 14.6444 12.3047 14.2608 10.9895 13.4936L8.94211 12.2993C7.64882 11.5449 7.00187 11.1675 6.78386 10.6755C6.59335 10.2455 6.59335 9.75516 6.78386 9.32521C7.00223 8.83236 7.65098 8.45385 8.94857 7.69692L10.9895 6.50635L10.9913 6.50537C12.3053 5.73886 12.9626 5.35545 13.5023 5.41047C13.9732 5.45847 14.4014 5.70463 14.6802 6.08724C14.9998 6.52592 15 7.28687 15 8.80941Z" stroke="black" stroke-width="1.66667" stroke-linecap="round" stroke-linejoin="round"/>
</svg>
