<svg width="20" height="20" viewBox="0 0 20 20" fill="none" xmlns="http://www.w3.org/2000/svg">
<path d="M14.1667 4.16667V15.8333M5 8.80941V11.1905C5 12.7131 5 13.4744 5.31962 13.9131C5.59839 14.2957 6.02645 14.5414 6.4974 14.5894C7.03737 14.6444 7.69528 14.2608 9.01042 13.4936L11.0514 12.3031L11.0584 12.299C12.3514 11.5448 12.9983 11.1674 13.2162 10.6755C13.4067 10.2455 13.4067 9.75516 13.2162 9.32521C12.9979 8.83236 12.349 8.45385 11.0514 7.69692L9.01042 6.50635C7.69528 5.73919 7.03737 5.35542 6.4974 5.41047C6.02645 5.45847 5.59839 5.70463 5.31962 6.08724C5 6.52592 5 7.28687 5 8.80941Z" stroke="black" stroke-width="1.66667" stroke-linecap="round" stroke-linejoin="round"/>
</svg>
